{"title":"Shutter Island (2010) 720p BRRip NL subs_xvid.avi","uid":7087319,"size":2301379356,"categoryP":"video","categoryS":"hd___movies","magnet":"?xt=urn:btih:97956a69b69f50e34d7a452dae9f87746f1505d6&amp;dn=Shutter+Island+%282010%29+720p+BRRip+NL+subs_xvid.avi&amp;tr=udp%3A%2F%2Ftracker.openbittorrent.com%3A80&amp;tr=udp%3A%2F%2Fopen.demonii.com%3A1337&amp;tr=udp%3A%2F%2Ftracker.coppersurfer.tk%3A6969&amp;tr=udp%3A%2F%2Fexodus.desync.com%3A6969","seeders":0,"leechers":0,"uploader":"BreinZiek","files":1,"time":1331234890,"description":"Subs ingebakken.\n\nGeneral\nComplete name                            : F:Vuze Downloads___DownloadFolderShutter Island (2010) 720p BRRip NL subs DutchReleaseTeamShutter Island (2010) 720p BRRip NL subs_xvid.avi\nFormat                                   : AVI\nFormat/Info                              : Audio Video Interleave\nFormat profile                           : OpenDML\nFile size                                : 2.14 GiB\nDuration                                 : 2h 18mn\nOverall bit rate mode                    : Variable\nOverall bit rate                         : 2 222 Kbps\nWriting application                      : MEncoder r33883\nWriting library                          : MPlayer\n\nVideo\nID                                       : 0\nFormat                                   : MPEG-4 Visual\nFormat profile                           : Simple@L3\nFormat settings, BVOP                    : No\nFormat settings, QPel                    : No\nFormat settings, GMC                     : No warppoints\nFormat settings, Matrix                  : Default (H.263)\nCodec ID                                 : XVID\nCodec ID/Hint                            : XviD\nDuration                                 : 2h 18mn\nBit rate                                 : 1 902 Kbps\nWidth                                    : 1 280 pixels\nHeight                                   : 544 pixels\nDisplay aspect ratio                     : 2.35:1\nFrame rate                               : 23.976 fps\nColor space                              : YUV\nChroma subsampling                       : 4:2:0\nBit depth                                : 8 bits\nScan type                                : Progressive\nCompression mode                         : Lossy\nBits/(Pixel*Frame)                       : 0.114\nStream size                              : 1.83 GiB (86%)\nWriting library                          : XviD 63\n\nAudio\nID                                       : 1\nFormat                                   : MPEG Audio\nFormat version                           : Version 1\nFormat profile                           : Layer 3\nMode                                     : Joint stereo\nMode extension                           : MS Stereo\nCodec ID                                 : 55\nCodec ID/Hint                            : MP3\nDuration                                 : 2h 18mn\nBit rate mode                            : Variable\nBit rate                                 : 308 Kbps\nChannel(s)                               : 2 channels\nSampling rate                            : 48.0 KHz\nCompression mode                         : Lossy\nStream size                              : 304 MiB (14%)\nAlignment                                : Aligned on interleaves\nInterleave, duration                     : 24 ms (0.58 video frame)\nInterleave, preload duration             : 109 ms\nWriting library                          : LAME3.98.4","torrent":{"xt":"urn:btih:97956a69b69f50e34d7a452dae9f87746f1505d6","amp;dn":"Shutter+Island+%282010%29+720p+BRRip+NL+subs_xvid.avi","amp;tr":["udp%3A%2F%2Ftracker.openbittorrent.com%3A80","udp%3A%2F%2Fopen.demonii.com%3A1337","udp%3A%2F%2Ftracker.coppersurfer.tk%3A6969","udp%3A%2F%2Fexodus.desync.com%3A6969"],"infoHash":"97956a69b69f50e34d7a452dae9f87746f1505d6","infoHashBuffer":{"type":"Buffer","data":[151,149,106,105,182,159,80,227,77,122,69,45,174,159,135,116,111,21,5,214]},"announce":[],"urlList":[]}}